<svg width="217" height="25" viewBox="0 0 217 25" fill="none" xmlns="http://www.w3.org/2000/svg">
<path d="M18.3807 17.0906L18.0817 17.2977C16.4713 18.4249 14.953 19.2761 11.5023 19.4601C5.95821 19.7822 0.391079 16.5845 0.391079 10.2352C0.391079 4.73711 4.89999 0.711297 11.0192 0.895333C14.1939 1.01036 16.5403 2.13758 17.7366 2.91974L18.0817 3.17279L17.2995 5.56528L17.0465 5.49627L16.9544 5.26622C16.3793 3.74791 15.1601 1.7005 10.9962 1.35543C5.49811 0.918339 3.15164 5.42725 3.03661 9.95917C2.89859 14.7211 5.9122 19.3681 11.2723 19.023C14.1249 18.839 16.1953 17.7117 17.5065 15.2272L17.6446 14.9512L17.8056 14.8822L18.3807 17.0906ZM39.0182 19C38.006 18.931 37.3849 18.908 36.3497 18.908C35.4755 18.908 34.9464 18.931 34.0722 19V18.816C34.5093 18.5399 34.7394 18.3329 34.9924 17.8958C35.3605 17.2747 35.3605 16.2855 35.3605 16.0554L35.4065 10.0972H23.5361L23.7431 16.1014C23.7661 16.8376 24.0422 17.7808 24.1572 17.9648C24.5023 18.4709 24.5943 18.5399 24.9624 18.816L24.9854 19C23.9272 18.931 23.2831 18.908 22.2018 18.908C21.3967 18.908 20.9136 18.931 20.1084 19V18.816C20.4995 18.5399 20.7295 18.3099 20.9596 17.8958C21.1666 17.5277 21.3507 16.3315 21.3507 16.1014V3.60988C21.3507 3.17279 21.2816 2.73571 20.9826 2.27561C20.7985 1.99956 20.5225 1.67749 20.4075 1.60848V1.40144C20.4075 1.40144 21.6267 1.51646 22.3629 1.51646C23.099 1.51646 24.2723 1.40144 24.2723 1.40144V1.60848C24.1572 1.67749 23.8582 2.02256 23.6971 2.34463C23.4901 2.78172 23.4901 3.28782 23.4901 3.58688L23.5361 9.45307H35.4065L35.4985 3.58688C35.4985 3.31082 35.4525 2.80472 35.2455 2.34463C35.1304 2.06857 35.0154 1.90754 34.7624 1.60848V1.40144C34.7624 1.40144 35.9126 1.51646 36.6258 1.51646C37.2929 1.51646 38.3741 1.40144 38.3741 1.40144V1.60848C38.3051 1.7005 38.1441 1.7235 37.868 2.34463C37.684 2.80472 37.638 3.40284 37.638 3.58688L37.615 16.1014C37.615 16.8376 37.983 17.7808 38.0981 17.9648C38.4201 18.3329 38.6042 18.5629 39.0182 18.816V19ZM61.6762 19C60.434 18.908 59.7208 18.908 58.4786 18.908C57.5124 18.908 56.9142 18.931 55.9711 19V18.816C56.4541 18.6089 56.7532 18.2869 56.8912 17.7808C57.0523 17.1826 56.7072 16.4695 56.5692 16.2855L53.7166 10.0512H46.7462L44.2157 15.5723C43.8476 16.3545 43.7096 17.1136 44.1697 17.8268C44.4687 18.3559 44.8138 18.6779 45.4119 18.816V19C44.4917 18.931 43.9166 18.908 42.9504 18.908C41.9612 18.908 41.3861 18.908 40.4199 19V18.816C40.88 18.4709 41.1561 18.2178 41.5471 17.8038C42.3293 17.0216 43.1114 15.5493 43.1805 15.4343L51.002 0.0671664L59.1227 15.8944C59.4448 16.5845 59.7208 16.9756 60.2269 17.5737C60.687 18.1258 61.0551 18.3789 61.6762 18.816V19ZM53.4405 9.45307L50.1739 2.98876L47.0452 9.45307H53.4405ZM79.2011 13.2028C79.4081 17.0676 75.8424 19.3911 70.6894 19.184C67.9518 19.115 65.1452 18.2408 63.5809 17.5277L63.0978 17.2977L64.11 14.3991L64.2711 14.5371L64.3401 14.7671C65.0992 17.8268 69.1711 18.6549 71.4715 18.7009C73.772 18.7469 77.0386 17.6197 77.0156 14.6521C76.9696 11.7995 73.91 11.6385 71.2415 11.1094L70.5053 10.9714C67.6297 10.4193 64.4091 9.43006 64.5011 6.41645C64.6161 2.45965 68.4349 1.2174 71.6556 1.28641C73.864 1.33242 76.8546 2.06857 78.2579 2.7127L78.626 2.89674L77.7978 5.54227L77.5678 5.42725L77.5217 5.1972C76.9466 2.66669 73.657 1.90754 71.6556 1.83852C68.757 1.74651 66.6635 2.96575 66.5025 5.24321C66.2725 8.09579 69.3091 8.50988 72.0466 9.06199L72.6218 9.17701C73.2199 9.29203 79.017 9.84415 79.2011 13.2028ZM98.5437 15.2272L97.3935 19H87.2024C86.0982 19 85.454 18.908 84.3498 18.908C83.0385 18.908 82.2564 18.908 80.9681 19V18.816C81.4742 18.6319 81.7733 18.4019 82.0954 17.9648C82.5555 17.4587 82.5324 15.5263 82.5324 15.2962V3.51786C82.5324 3.26481 82.3254 2.7127 82.0493 2.29862C81.8193 1.90754 81.5202 1.67749 81.4282 1.60848V1.40144H95.9442L96.9334 4.41505L96.6343 4.36904L96.3813 4.11599C95.346 3.08078 94.8169 2.96575 93.7357 2.50566C92.4475 1.97655 88.4907 1.97655 85.155 1.97655H84.7179V9.33804H90.262C91.3662 9.33804 92.3554 9.33804 93.1376 8.83194C93.6897 8.44086 94.0118 8.07279 94.3108 7.42866H94.5639C94.4949 8.25682 94.4719 8.78593 94.4719 9.6141C94.4719 10.4653 94.4949 10.9254 94.5639 11.7535H94.3108C93.9658 11.2014 93.6897 10.8333 92.8845 10.3963C92.3094 10.0742 91.6193 9.95917 90.262 9.95917H84.7869L84.9709 16.0784C85.063 18.4939 86.2362 18.3099 88.4907 18.3559C94.0808 18.4709 96.8413 17.2516 98.2676 15.2732L98.5437 15.2272ZM122.665 19C121.836 18.931 121.376 18.931 120.548 18.931C119.812 18.931 118.754 19 118.662 19H118.363C118.087 18.793 117.903 18.6319 117.627 18.4249C117.19 18.1028 116.936 17.8958 116.522 17.6197L116.292 17.8038C115.211 18.7469 113.095 19.8052 110.679 19.7822C107.297 19.7592 104.744 18.0568 104.675 15.3883C104.606 13.1108 106.906 11.4315 108.241 10.7873L108.632 10.5803L108.402 10.2352C107.551 8.94696 106.837 8.07279 106.929 6.57748C107.09 4.208 109.207 2.2296 111.461 2.43665C113.348 2.59768 115.004 3.83993 114.958 5.58828C114.889 7.84274 113.118 8.99297 111.461 9.82114L110.932 10.0742C112.451 11.6845 112.474 11.7075 113.509 12.6507C114.843 13.939 116.913 15.6413 117.12 15.8254L117.305 15.5033C117.581 14.9512 117.903 12.3747 117.397 11.5695C117.051 10.9714 116.361 10.6953 115.556 10.6033V10.4193C116.453 10.4653 116.453 10.4423 117.88 10.4653C118.478 10.4653 119.237 10.3502 119.444 10.3502H119.628C119.605 10.7413 119.467 12.0756 119.191 13.1108C118.869 14.215 118.317 15.3423 117.995 15.8484L117.742 16.2394C118.018 16.4695 119.812 17.6657 120.203 17.8728C121.169 18.4019 121.951 18.793 122.665 18.793V19ZM113.187 6.25542C113.279 4.62209 112.29 2.80472 110.679 2.89674C109.138 2.98876 108.218 4.23101 108.333 5.63429C108.448 7.38265 109.161 8.27983 110.38 9.49908L110.61 9.72912L111.047 9.47607C112.336 8.69391 113.095 7.72772 113.187 6.25542ZM115.993 17.2056C115.487 16.7916 113.739 15.3423 112.382 14.146C111.024 12.9268 109.161 11.1324 108.954 10.9254L108.563 11.1784C108.011 11.5235 106.883 12.9728 106.883 14.3761C106.837 17.0906 109.253 19.092 112.082 19.023C113.601 19 114.682 18.5169 115.717 17.5047L115.993 17.2056ZM145.857 10.0282C145.949 14.7901 142.821 18.2869 137.783 19.2991L137.208 19.4141C137.185 19.5061 136.839 19.6671 137.115 19.6901C137.415 19.7361 142.614 22.6577 144.546 22.7728C145.213 22.8188 145.42 22.6347 145.466 22.6117L145.558 22.7038L143.902 23.785C143.212 24.2221 142.844 24.3371 142.476 24.3371C141.647 24.3371 135.942 20.5183 134.424 20.4953C133.642 20.4953 133.343 20.6563 132.008 21.5305L131.686 21.7145L131.456 21.3695C131.962 20.9784 132.285 20.7714 132.837 20.4493C133.596 20.0352 134.907 19.7131 134.884 19.5521C134.884 19.4601 134.861 19.3681 134.838 19.2991L134.493 19.207C129.662 17.9878 126.763 14.7671 126.763 10.1662C126.74 4.34603 131.226 0.964347 136.264 0.964347C141.854 0.941343 145.788 4.78312 145.857 10.0282ZM143.212 10.0282C143.189 5.1972 141.187 1.17139 135.873 1.44745C130.996 1.7005 129.386 6.30143 129.34 10.1892C129.271 14.4451 131.663 18.862 136.172 18.931C141.555 19.023 143.212 14.4221 143.212 10.0282ZM166.551 1.60848C166.436 1.65449 165.838 1.99956 165.469 2.57467C165.009 3.31082 165.032 4.59908 165.032 4.80613L164.825 12.8578C164.756 16.1474 162.525 19.3221 157.832 19.4141C148.86 19.5981 149.09 13.6169 149.09 13.1568V3.58688C149.09 3.31082 149.113 2.75871 148.883 2.34463C148.676 1.99956 148.216 1.63148 148.101 1.60848V1.40144C148.101 1.40144 149.435 1.49345 150.286 1.49345C151.115 1.49345 152.449 1.40144 152.449 1.40144V1.60848C152.334 1.67749 152.127 1.76951 151.759 2.34463C151.483 2.75871 151.345 3.40284 151.345 3.58688L151.46 12.7657C151.506 16.7225 153.99 18.7469 157.947 18.793C163.951 18.862 164.227 13.2488 164.227 12.4667L164.181 4.99016C164.181 4.71411 164.112 3.14979 163.422 2.34463C163.1 1.99956 162.548 1.65449 162.433 1.60848V1.40144C162.433 1.40144 163.698 1.47045 164.48 1.47045C165.262 1.47045 166.551 1.40144 166.551 1.40144V1.60848ZM173.715 19C172.795 18.931 172.243 18.908 171.299 18.908C170.264 18.908 169.666 18.931 168.631 19V18.816C169.114 18.5859 169.39 18.3329 169.666 17.8958C170.057 17.2977 170.057 16.3315 170.057 16.1014L170.149 3.58688C170.149 3.31082 170.011 2.78172 169.758 2.34463C169.574 2.04557 169.229 1.67749 169.137 1.60848V1.40144C169.942 1.51646 170.402 1.53946 171.184 1.53946C171.92 1.53946 172.381 1.49345 173.094 1.40144V1.60848C173.002 1.67749 172.68 2.02256 172.496 2.34463C172.266 2.78172 172.197 3.40284 172.197 3.58688L172.312 16.1014C172.335 16.8376 172.68 17.7808 172.818 17.9648C173.094 18.3099 173.324 18.5859 173.715 18.816V19ZM195.024 1.60848C194.633 1.83852 194.495 1.88453 194.081 2.43665C193.92 2.62068 193.345 3.40284 193.345 5.33523V19.3681H193C191.205 17.3207 190.216 16.0784 188.376 14.077C184.511 9.89015 178.415 3.05777 178.415 3.26481L178.622 15.0662C178.645 16.4005 179.128 17.7808 179.266 17.9648C179.634 18.4249 180.002 18.6089 180.554 18.816L180.577 19C179.772 18.931 179.266 18.908 178.461 18.908C177.494 18.908 176.919 18.931 175.976 19V18.816C176.459 18.5859 176.735 18.3559 177.103 17.9648C177.586 17.3897 177.816 15.5493 177.816 15.0432L177.793 3.77092C177.793 3.1958 177.31 2.55167 177.126 2.34463C176.85 2.06857 176.482 1.67749 176.367 1.60848V1.40144C177.149 1.49345 177.632 1.49345 178.438 1.49345C179.059 1.49345 179.45 1.47045 180.071 1.40144C180.485 1.95355 180.761 2.29862 181.198 2.85073C181.773 3.58688 192.608 15.2502 192.608 14.9742L192.539 5.35824C192.539 4.85214 192.171 3.08078 191.688 2.50566C191.366 2.11458 191.09 1.83852 190.63 1.60848V1.40144C191.527 1.49345 192.079 1.51646 193 1.51646C193.759 1.51646 194.242 1.49345 195.024 1.40144V1.60848ZM216.068 1.60848C215.677 1.83852 215.539 1.88453 215.125 2.43665C214.964 2.62068 214.388 3.40284 214.388 5.33523V19.3681H214.043C212.249 17.3207 211.26 16.0784 209.419 14.077C205.555 9.89015 199.458 3.05777 199.458 3.26481L199.666 15.0662C199.689 16.4005 200.172 17.7808 200.31 17.9648C200.678 18.4249 201.046 18.6089 201.598 18.816L201.621 19C200.816 18.931 200.31 18.908 199.504 18.908C198.538 18.908 197.963 18.931 197.02 19V18.816C197.503 18.5859 197.779 18.3559 198.147 17.9648C198.63 17.3897 198.86 15.5493 198.86 15.0432L198.837 3.77092C198.837 3.1958 198.354 2.55167 198.17 2.34463C197.894 2.06857 197.526 1.67749 197.411 1.60848V1.40144C198.193 1.49345 198.676 1.49345 199.481 1.49345C200.103 1.49345 200.494 1.47045 201.115 1.40144C201.529 1.95355 201.805 2.29862 202.242 2.85073C202.817 3.58688 213.652 15.2502 213.652 14.9742L213.583 5.35824C213.583 4.85214 213.215 3.08078 212.732 2.50566C212.41 2.11458 212.134 1.83852 211.674 1.60848V1.40144C212.571 1.49345 213.123 1.51646 214.043 1.51646C214.803 1.51646 215.286 1.49345 216.068 1.40144V1.60848Z" fill="black"/>
</svg>
